<?xml version="1.0" encoding="UTF-8"?>
<!DOCTYPE svg PUBLIC "-//W3C//DTD SVG 1.1//EN" "http://www.w3.org/Graphics/SVG/1.1/DTD/svg11.dtd">
<!-- Creator: CorelDRAW 2018 -->
<svg xmlns="http://www.w3.org/2000/svg" xml:space="preserve" width="150px" height="151px" version="1.1" style="shape-rendering:geometricPrecision; text-rendering:geometricPrecision; image-rendering:optimizeQuality; fill-rule:evenodd; clip-rule:evenodd"
viewBox="0 0 2436.49 2450.6"
 xmlns:xlink="http://www.w3.org/1999/xlink">
 <defs>
  <style type="text/css">
   <![CDATA[
    .fil1 {fill:#F3F0DA}
    .fil0 {fill:#F3F0DA;fill-rule:nonzero}
   ]]>
  </style>
 </defs>
 <g id="Слой_x0020_1">
  <metadata id="CorelCorpID_0Corel-Layer"/>
  <path class="fil0" d="M1705.47 2143.1c-37.68,19.56 -73.95,36.1 -113.45,51.66 -143.11,53.37 -258.76,74.44 -411.54,75.51 -152.34,-3.23 -267.22,-25.81 -408.99,-81.54 -135.49,-57.67 -231.39,-119.82 -339.6,-219.66 -106.64,-103.86 -174.25,-197.34 -239.29,-331.3 -64.83,-143.15 -93.27,-260.36 -102.63,-417.29 -4.85,-160.05 13.4,-281.56 65.83,-432.85 55.99,-146.98 118.91,-251.01 222.47,-369.35 92.1,-99.82 175.35,-166.16 293.23,-233.71 -92.57,44.98 -179.1,101.85 -257.23,168.82 -17.33,16.5 -33.88,33.17 -50.25,50.63 -107.84,118.73 -174.12,223.87 -234.19,372.62 -57.13,154.41 -78.4,279.18 -76.61,443.84 6.54,162.82 33.81,285.07 98.33,434.65 65.49,141.05 134.63,239.79 244.6,349.67 112.31,106.25 212.33,172.37 354.28,233.73 148.87,59.43 269.75,83.29 430.05,86.09 160.47,-1.84 281.74,-25.04 431.17,-83.43 142.97,-60.59 243.98,-126.19 357.83,-231.71 77.87,-75.59 133.15,-144.18 190.51,-236.31 23.69,-36.63 47.67,-71.71 70.57,-109.1 114.57,-194.23 232.64,-667.04 185.31,-301.89 -28.14,122.61 -62.79,217.59 -120.7,329.22 -79.78,146.44 -159.84,248.44 -283.5,360.27 -123.33,105.77 -231.38,171.17 -382.75,230.35 -156.28,56.04 -282.36,77.38 -448.44,76.35 -164.53,-5.66 -288.57,-31.85 -440.81,-94.4 -144.61,-64.09 -246.69,-132.41 -361.21,-241.47 -112.05,-112.63 -182.7,-213.62 -249.82,-357.68 -66.22,-152.86 -94.52,-277.85 -101.86,-444.34 -2.48,-158.4 16.07,-279.14 66.91,-429.15 -60.68,148.26 -86.7,269.04 -93.51,429.15 -2.4,172.55 19.55,303.25 79.39,465.09 62.93,155.84 132.56,265.85 246.17,389.65 118.41,121.95 225.43,198.26 379.44,270.31 163.52,70.87 297.1,100.04 475.3,105.07 179.1,-0.42 314.24,-26.2 480.18,-93.56 62.49,-26.89 115.81,-54.87 173.43,-91.04 87.56,-44.84 159.14,-93.97 235.59,-156.32 149.65,-130.46 255,-316.7 299.57,-354.1 -83.91,146.48 -166.55,248.78 -292.48,361.19 -133.62,113.16 -250.53,182.42 -414.46,244.18 -168.44,57.83 -303.72,78.5 -481.83,73.99 -174.9,-9.48 -305.98,-40.26 -466.13,-111.11 -150.34,-71.42 -255.65,-146.23 -372.49,-264.73 -112.68,-120.66 -182.65,-227.91 -247.16,-379.92 -62.19,-159.05 -86.62,-287.9 -87.97,-458.7 3.68,-170.25 29.78,-298.46 94.35,-456 8.03,-18.75 16.4,-37.03 25.33,-55.37 59.08,-129.05 120.4,-221.85 215.64,-327.06 115.29,-120.86 219.8,-197.1 370.17,-269.95 160.59,-72.4 292.26,-103.39 468.26,-111.81 178.53,-3.17 313.64,19.47 480.94,81.83 160.91,65.58 273.9,137.98 400.91,256.51 124.45,122.99 201.86,234.05 273.93,393.54 70.3,168.5 98.09,305.72 100.23,488.31 -8.36,-181.29 -39.94,-316.85 -114.11,-482.44 -74.72,-155.13 -153.06,-263.01 -277.5,-381.96 -125.97,-113.85 -237.41,-183.43 -395.27,-246.06 -163.47,-59.23 -295.27,-80.59 -469.13,-76.89 -168.56,8.53 -295.03,38.05 -449.28,106.45 80.44,-33.46 164.44,-57.79 250.31,-72.51 68.33,-14.7 129.15,-22.66 198.97,-26.22 173.03,-5.14 304.19,15.42 467.06,74.08 38.83,14.86 74.8,30.67 112.02,49.19 107.53,59.86 184.52,118.74 269.87,207.4 99.49,108.87 160.3,205.5 213.6,343.09 -61,-132.27 -126.13,-224.63 -229.14,-327.54 -98.07,-92.95 -185.45,-152.4 -307.68,-210.02 -24.13,-10.54 -47.91,-20.06 -72.66,-29.07 -158.5,-54.3 -285.65,-72.46 -453.07,-65.53 -163.38,11.68 -284.93,43.22 -432.56,114.07 -136.89,70.3 -231.5,142.55 -335.12,256.28 -98.07,113.83 -157.58,213.87 -210.13,354.65 -48.98,144.56 -65.62,260.48 -60.1,413.03 9.77,149.19 37.47,260.42 100.01,396.15 62.45,126.59 127.26,214.97 229.09,312.66 102.97,93.59 194.26,151.73 322.83,205.05 134.02,51.21 242.47,71.33 385.98,72.75 143.24,-2.67 251.27,-23.74 384.7,-75.78 127.66,-53.93 218.25,-112.16 320.76,-205.37 47.32,-44.73 85.42,-87.19 124.86,-138.99 -1.7,46.14 -66.11,136.67 -92.75,171.1 -64.42,78.39 -126.67,130.71 -212.58,185.05z"/>
  <path class="fil1" d="M1878.37 1450.28l-157.36 523.67 -997.6 0 -165.28 -526.52c16.24,2.85 32.89,4.47 49.95,4.47 80.4,0 152.9,-34.11 203.66,-88.73 50.76,54.62 123.25,88.73 203.66,88.73 81.83,0 155.54,-35.33 206.5,-91.78 50.77,56.45 124.48,91.78 206.51,91.78 83.86,0 158.98,-37.15 209.95,-95.84 51.17,58.68 126.3,95.84 210.16,95.84 10.15,0 20.1,-0.61 29.85,-1.62l0 0zm-1317.2 -497.48c-0.81,2.64 -1.62,5.29 -2.43,7.93l-2.85 -0.82c0.61,-2.23 1.42,-4.67 2.03,-6.9 -107.21,10.97 -191.07,101.73 -191.07,211.78 0,117.77 95.23,213 212.8,213 117.57,0 213,-95.23 213,-213 0,117.77 95.23,213 212.59,213 117.77,0 213,-95.23 213,-213 0,117.77 95.24,213 212.8,213 117.57,0 213,-95.23 213,-213 0,117.77 95.23,213 212.6,213 117.57,0 213,-95.23 213,-213 0,-113.1 -88.53,-205.89 -200.21,-212.39 0.61,1.62 1.01,3.25 1.62,4.87l-3.04 0.82c-0.61,-2.04 -1.22,-3.86 -1.83,-5.89 -44.47,-138.69 -131.98,-258.08 -246.71,-342.55 -113.71,-83.66 -253.81,-133 -405.69,-133 -152.09,0 -293.01,49.75 -406.72,133.81 -114.52,84.47 -201.42,203.87 -245.89,342.34l0 0 0 0zm269.66 -184.17l90.15 -90.56c17.46,-17.05 45.48,-17.05 62.75,0l0 0c17.26,17.26 17.26,45.49 0,62.54l-90.37 90.56c-17.26,17.06 -45.48,17.06 -62.53,0l0 0c-17.46,-17.26 -17.46,-45.48 0,-62.54zm223.35 193.72l90.37 90.36c17.26,17.26 17.26,45.48 0,62.54l0 0c-17.27,17.26 -45.29,17.26 -62.54,0l-90.36 -90.16c-17.26,-17.46 -17.26,-45.48 0,-62.74l0 0c17.26,-17.26 45.28,-17.26 62.53,0zm227.83 -332.4l90.56 90.36c17.26,17.06 17.26,45.28 0,62.54l0 0c-17.26,17.26 -45.49,17.26 -62.75,0l-90.36 -90.36c-17.05,-17.26 -17.05,-45.48 0,-62.54l0 0c17.26,-17.26 45.48,-17.26 62.54,0l0.01 0zm221.73 379.91l90.56 -90.36c17.06,-17.26 45.28,-17.26 62.54,0l0 0c17.06,17.06 17.06,45.28 0,62.54l-90.36 90.36c-17.26,17.26 -45.48,17.26 -62.74,0l0 0c-17.06,-17.26 -17.06,-45.28 0,-62.54l0 0z"/>
 </g>
</svg>
