<?xml version="1.0" encoding="UTF-8"?>
<!DOCTYPE svg PUBLIC "-//W3C//DTD SVG 1.1//EN" "http://www.w3.org/Graphics/SVG/1.1/DTD/svg11.dtd">
<!-- Creator: CorelDRAW 2018 -->
<svg xmlns="http://www.w3.org/2000/svg" xml:space="preserve" width="150px" height="151px" version="1.1" style="shape-rendering:geometricPrecision; text-rendering:geometricPrecision; image-rendering:optimizeQuality; fill-rule:evenodd; clip-rule:evenodd"
viewBox="0 0 2436.49 2450.6"
 xmlns:xlink="http://www.w3.org/1999/xlink">
 <defs>
  <style type="text/css">
   <![CDATA[
    .fil2 {fill:#F3F0DA}
    .fil1 {fill:#F3F0DA;fill-rule:nonzero}
    .fil0 {fill:#F3F0DA;fill-rule:nonzero}
   ]]>
  </style>
 </defs>
 <g id="Слой_x0020_1">
  <metadata id="CorelCorpID_0Corel-Layer"/>
  <path class="fil0" d="M1705.47 2143.1c-37.68,19.56 -73.95,36.1 -113.45,51.66 -143.11,53.37 -258.76,74.44 -411.54,75.51 -152.34,-3.23 -267.22,-25.81 -408.99,-81.54 -135.49,-57.67 -231.39,-119.82 -339.6,-219.66 -106.64,-103.86 -174.25,-197.34 -239.29,-331.3 -64.83,-143.15 -93.27,-260.36 -102.63,-417.29 -4.85,-160.05 13.4,-281.56 65.83,-432.85 55.99,-146.98 118.91,-251.01 222.47,-369.35 92.1,-99.82 175.35,-166.16 293.23,-233.71 -92.57,44.98 -179.1,101.85 -257.23,168.82 -17.33,16.5 -33.88,33.17 -50.25,50.63 -107.84,118.73 -174.12,223.87 -234.19,372.62 -57.13,154.41 -78.4,279.18 -76.61,443.84 6.54,162.82 33.81,285.07 98.33,434.65 65.49,141.05 134.63,239.79 244.6,349.67 112.31,106.25 212.33,172.37 354.28,233.73 148.87,59.43 269.75,83.29 430.05,86.09 160.47,-1.84 281.74,-25.04 431.17,-83.43 142.97,-60.59 243.98,-126.19 357.83,-231.71 77.87,-75.59 133.15,-144.18 190.51,-236.31 23.69,-36.63 47.67,-71.71 70.57,-109.1 114.57,-194.23 232.64,-667.04 185.31,-301.89 -28.14,122.61 -62.79,217.59 -120.7,329.22 -79.78,146.44 -159.84,248.44 -283.5,360.27 -123.33,105.77 -231.38,171.17 -382.75,230.35 -156.28,56.04 -282.36,77.38 -448.44,76.35 -164.53,-5.66 -288.57,-31.85 -440.81,-94.4 -144.61,-64.09 -246.69,-132.41 -361.21,-241.47 -112.05,-112.63 -182.7,-213.62 -249.82,-357.68 -66.22,-152.86 -94.52,-277.85 -101.86,-444.34 -2.48,-158.4 16.07,-279.14 66.91,-429.15 -60.68,148.26 -86.7,269.04 -93.51,429.15 -2.4,172.55 19.55,303.25 79.39,465.09 62.93,155.84 132.56,265.85 246.17,389.65 118.41,121.95 225.43,198.26 379.44,270.31 163.52,70.87 297.1,100.04 475.3,105.07 179.1,-0.42 314.24,-26.2 480.18,-93.56 62.49,-26.89 115.81,-54.87 173.43,-91.04 87.56,-44.84 159.14,-93.97 235.59,-156.32 149.65,-130.46 255,-316.7 299.57,-354.1 -83.91,146.48 -166.55,248.78 -292.48,361.19 -133.62,113.16 -250.53,182.42 -414.46,244.18 -168.44,57.83 -303.72,78.5 -481.83,73.99 -174.9,-9.48 -305.98,-40.26 -466.13,-111.11 -150.34,-71.42 -255.65,-146.23 -372.49,-264.73 -112.68,-120.66 -182.65,-227.91 -247.16,-379.92 -62.19,-159.05 -86.62,-287.9 -87.97,-458.7 3.68,-170.25 29.78,-298.46 94.35,-456 8.03,-18.75 16.4,-37.03 25.33,-55.37 59.08,-129.05 120.4,-221.85 215.64,-327.06 115.29,-120.86 219.8,-197.1 370.17,-269.95 160.59,-72.4 292.26,-103.39 468.26,-111.81 178.53,-3.17 313.64,19.47 480.94,81.83 160.91,65.58 273.9,137.98 400.91,256.51 124.45,122.99 201.86,234.05 273.93,393.54 70.3,168.5 98.09,305.72 100.23,488.31 -8.36,-181.29 -39.94,-316.85 -114.11,-482.44 -74.72,-155.13 -153.06,-263.01 -277.5,-381.96 -125.97,-113.85 -237.41,-183.43 -395.27,-246.06 -163.47,-59.23 -295.27,-80.59 -469.13,-76.89 -168.56,8.53 -295.03,38.05 -449.28,106.45 80.44,-33.46 164.44,-57.79 250.31,-72.51 68.33,-14.7 129.15,-22.66 198.97,-26.22 173.03,-5.14 304.19,15.42 467.06,74.08 38.83,14.86 74.8,30.67 112.02,49.19 107.53,59.86 184.52,118.74 269.87,207.4 99.49,108.87 160.3,205.5 213.6,343.09 -61,-132.27 -126.13,-224.63 -229.14,-327.54 -98.07,-92.95 -185.45,-152.4 -307.68,-210.02 -24.13,-10.54 -47.91,-20.06 -72.66,-29.07 -158.5,-54.3 -285.65,-72.46 -453.07,-65.53 -163.38,11.68 -284.93,43.22 -432.56,114.07 -136.89,70.3 -231.5,142.55 -335.12,256.28 -98.07,113.83 -157.58,213.87 -210.13,354.65 -48.98,144.56 -65.62,260.48 -60.1,413.03 9.77,149.19 37.47,260.42 100.01,396.15 62.45,126.59 127.26,214.97 229.09,312.66 102.97,93.59 194.26,151.73 322.83,205.05 134.02,51.21 242.47,71.33 385.98,72.75 143.24,-2.67 251.27,-23.74 384.7,-75.78 127.66,-53.93 218.25,-112.16 320.76,-205.37 47.32,-44.73 85.42,-87.19 124.86,-138.99 -1.7,46.14 -66.11,136.67 -92.75,171.1 -64.42,78.39 -126.67,130.71 -212.58,185.05z"/>
  <g id="_704230640">
   <g id="_802131056">
    <path class="fil1" d="M1011.92 914.1c51.98,0.41 77.77,13.41 103.36,59.7 8.32,15.03 36.75,76.55 12.38,85.89 -15.43,6.09 -523.06,1.02 -572,0.82 -60.91,-0.21 -105.79,-13 -113.3,-81.43 -2.64,-24.97 -3.86,-63.55 30.05,-64.98 173,-8.12 364.08,-0.61 539.51,0l0 0 0 0z"/>
    <path class="fil1" d="M1706.16 929.33l26.2 3.66 97.46 0c0,-51.98 -0.2,-103.97 0,-155.95 0,-16.04 -9.14,-13.8 -24.16,-13.19 -30.87,1.01 -73.71,-1.83 -102.34,5.89 -32.29,8.93 -40.01,28.42 -57.47,34.52 -9.54,3.25 -52.99,1.62 -66.39,1.62 -36.35,0 -72.69,0 -109.04,0l0 86.09c34.11,0 68.02,0.21 102.13,-0.2 28.64,-0.41 28.43,4.06 35.94,31.67 13.61,51.58 16.65,106 20.1,159.2 6.3,95.43 -2.23,158.58 -63.75,235.33 -57.06,70.87 -149.65,104.78 -238.79,88.74 -55.84,-10.16 -110.46,-36.55 -150.46,-76.96 -33.1,-33.5 -55.84,-83.66 -65.39,-129.35 -3.85,-19.08 -3.45,-31.67 -4.06,-50.76 -1.42,-22.13 -8.12,-23.35 -29.44,-23.14 -169.35,1.42 -338.29,1.62 -507.63,1.21 -51.98,-0.2 -50.76,-3.25 -86.3,36.76 -37.97,42.84 -72.89,117.97 -70.46,176.04 1.42,29.44 3.46,41.42 -32.69,38.58 -48.52,-4.06 -43.45,1.42 -61.32,44.26 -2.84,6.5 -14.01,29.85 -11.98,36.15 3.25,8.93 26.81,5.48 35.33,5.28 209.15,-7.31 429.86,-1.22 640.02,-0.61 43.86,0.2 37.97,-3.86 66,31.07 16.65,20.71 41.01,54.21 61.73,69.03 35.13,25.59 78.17,28.22 120,27.82 133.41,-1.42 267.22,-0.2 400.83,-0.2 -12.59,-29.65 -19.5,-62.14 -19.5,-96.45 0,-137.27 111.28,-248.54 248.54,-248.54 85.08,1.01 154.52,38.58 204.47,107.01 1.83,2.64 5.29,2.23 4.27,-1.63 -20.31,-61.12 -28.43,-88.32 -75.13,-135.84 -32.29,-32.89 -60.92,-51.98 -102.54,-71.07 -28.03,-12.79 -58.28,-19.08 -88.13,-26.8 -4.26,-1.22 -19.9,-3.65 -22.13,-6.9 -1.01,-1.43 -13,-33.3 -14.83,-37.57 -6.29,-15.43 -12.58,-30.86 -18.68,-46.09 -13.4,-32.89 -27,-65.79 -40.4,-98.68l0 0 0 0 -0.01 0z"/>
    <circle class="fil2" cx="1859.26" cy="1495.44" r="183.76"/>
    <path class="fil2" d="M877.71 1532.81l-352.3 1.42 -3.85 0c17.87,82.84 91.57,144.98 179.7,144.98 88.73,0 162.65,-62.75 179.9,-146.4l-3.45 0 0 0 0 0z"/>
   </g>
  </g>
 </g>
</svg>
